<svg xmlns="http://www.w3.org/2000/svg" width="640" height="330" viewBox="0 0 640 330" font-family="Segoe UI, Inter, Arial, sans-serif">
<rect width="100%" height="100%" fill="#fcfcfb"/>
<text x="16" y="24" font-size="15" font-weight="600" fill="#0b0b0b">S1. Hit@5: стратегия × размер chunk</text>
<text x="16" y="42" font-size="11.5" fill="#52514e">e5-small, dense-поиск, 34 отвечаемых вопроса</text>
<line x1="52" x2="624" y1="266.0" y2="266.0" stroke="#e6e5e0" stroke-width="1"/>
<text x="44" y="270.0" text-anchor="end" font-size="11" fill="#8a8983">0,0</text>
<line x1="52" x2="624" y1="224.4" y2="224.4" stroke="#e6e5e0" stroke-width="1"/>
<text x="44" y="228.4" text-anchor="end" font-size="11" fill="#8a8983">0,2</text>
<line x1="52" x2="624" y1="182.8" y2="182.8" stroke="#e6e5e0" stroke-width="1"/>
<text x="44" y="186.8" text-anchor="end" font-size="11" fill="#8a8983">0,4</text>
<line x1="52" x2="624" y1="141.2" y2="141.2" stroke="#e6e5e0" stroke-width="1"/>
<text x="44" y="145.2" text-anchor="end" font-size="11" fill="#8a8983">0,6</text>
<line x1="52" x2="624" y1="99.6" y2="99.6" stroke="#e6e5e0" stroke-width="1"/>
<text x="44" y="103.6" text-anchor="end" font-size="11" fill="#8a8983">0,8</text>
<line x1="52" x2="624" y1="58.0" y2="58.0" stroke="#e6e5e0" stroke-width="1"/>
<text x="44" y="62.0" text-anchor="end" font-size="11" fill="#8a8983">1,0</text>
<path d="M94.3,266.0 V117.1 Q94.3,113.1 98.3,113.1 H124.3 Q128.3,113.1 128.3,117.1 V266.0 Z" fill="#2a78d6"><title>fixed · 128 токенов: 0,74</title></path>
<text x="111.3" y="109.1" text-anchor="middle" font-size="9.5" fill="#52514e">0,74</text>
<path d="M130.3,266.0 V117.1 Q130.3,113.1 134.3,113.1 H160.3 Q164.3,113.1 164.3,117.1 V266.0 Z" fill="#eb6834"><title>paragraph · 128 токенов: 0,74</title></path>
<text x="147.3" y="109.1" text-anchor="middle" font-size="9.5" fill="#52514e">0,74</text>
<path d="M166.3,266.0 V104.8 Q166.3,100.8 170.3,100.8 H196.3 Q200.3,100.8 200.3,104.8 V266.0 Z" fill="#1baf7a"><title>section · 128 токенов: 0,79</title></path>
<text x="183.3" y="96.8" text-anchor="middle" font-size="9.5" fill="#52514e">0,79</text>
<text x="147.3" y="282" text-anchor="middle" font-size="11" fill="#52514e">128 токенов</text>
<path d="M285.0,266.0 V110.9 Q285.0,106.9 289.0,106.9 H315.0 Q319.0,106.9 319.0,110.9 V266.0 Z" fill="#2a78d6"><title>fixed · 256 токенов: 0,76</title></path>
<text x="302.0" y="102.9" text-anchor="middle" font-size="9.5" fill="#52514e">0,76</text>
<path d="M321.0,266.0 V110.9 Q321.0,106.9 325.0,106.9 H351.0 Q355.0,106.9 355.0,110.9 V266.0 Z" fill="#eb6834"><title>paragraph · 256 токенов: 0,76</title></path>
<text x="338.0" y="102.9" text-anchor="middle" font-size="9.5" fill="#52514e">0,76</text>
<path d="M357.0,266.0 V110.9 Q357.0,106.9 361.0,106.9 H387.0 Q391.0,106.9 391.0,110.9 V266.0 Z" fill="#1baf7a"><title>section · 256 токенов: 0,76</title></path>
<text x="374.0" y="102.9" text-anchor="middle" font-size="9.5" fill="#52514e">0,76</text>
<text x="338.0" y="282" text-anchor="middle" font-size="11" fill="#52514e">256 токенов</text>
<path d="M475.7,266.0 V110.9 Q475.7,106.9 479.7,106.9 H505.7 Q509.7,106.9 509.7,110.9 V266.0 Z" fill="#2a78d6"><title>fixed · 512 токенов: 0,76</title></path>
<text x="492.7" y="102.9" text-anchor="middle" font-size="9.5" fill="#52514e">0,76</text>
<path d="M511.7,266.0 V117.1 Q511.7,113.1 515.7,113.1 H541.7 Q545.7,113.1 545.7,117.1 V266.0 Z" fill="#eb6834"><title>paragraph · 512 токенов: 0,74</title></path>
<text x="528.7" y="109.1" text-anchor="middle" font-size="9.5" fill="#52514e">0,74</text>
<path d="M547.7,266.0 V110.9 Q547.7,106.9 551.7,106.9 H577.7 Q581.7,106.9 581.7,110.9 V266.0 Z" fill="#1baf7a"><title>section · 512 токенов: 0,76</title></path>
<text x="564.7" y="102.9" text-anchor="middle" font-size="9.5" fill="#52514e">0,76</text>
<text x="528.7" y="282" text-anchor="middle" font-size="11" fill="#52514e">512 токенов</text>
<rect x="52" y="307" width="10" height="10" rx="2" fill="#2a78d6"/>
<text x="67" y="316" font-size="11.5" fill="#52514e">fixed</text>
<rect x="125.0" y="307" width="10" height="10" rx="2" fill="#eb6834"/>
<text x="140.0" y="316" font-size="11.5" fill="#52514e">paragraph</text>
<rect x="226.8" y="307" width="10" height="10" rx="2" fill="#1baf7a"/>
<text x="241.8" y="316" font-size="11.5" fill="#52514e">section</text>
</svg>